<svg xmlns="http://www.w3.org/2000/svg" xmlns:xlink="http://www.w3.org/1999/xlink" width="500" zoomAndPan="magnify" viewBox="0 0 375 374.999991" height="500" preserveAspectRatio="xMidYMid meet" version="1.0"><defs><g/><clipPath id="0d6f3b5158"><path d="M 55.410156 62.164062 L 315.660156 62.164062 L 315.660156 312.664062 L 55.410156 312.664062 Z M 55.410156 62.164062 " clip-rule="nonzero"/></clipPath><clipPath id="edc47164a2"><path d="M 166.707031 152.804688 L 291.332031 152.804688 L 291.332031 253.363281 L 166.707031 253.363281 Z M 166.707031 152.804688 " clip-rule="nonzero"/></clipPath><clipPath id="4da07b9c5f"><path d="M 97.664062 198.210938 L 261.40625 198.210938 L 261.40625 221.3125 L 97.664062 221.3125 Z M 97.664062 198.210938 " clip-rule="nonzero"/></clipPath></defs><g clip-path="url(#0d6f3b5158)"><path fill="#000000" d="M 278.875 99.394531 C 256.332031 76.851562 225.175781 62.898438 190.773438 62.898438 C 156.375 62.898438 125.21875 76.84375 102.671875 99.394531 C 90.710938 111.355469 81.175781 125.734375 74.855469 141.734375 C 90.273438 111.066406 102.335938 124.109375 102.335938 124.109375 C 87.667969 121.304688 78.304688 135.34375 74.808594 141.871094 C 71.78125 149.554688 69.503906 157.601562 68.050781 165.9375 C 69.695312 161.269531 74.4375 150.890625 85.007812 147.324219 C 98.816406 142.660156 88.660156 147.007812 79.570312 154.617188 C 72.417969 160.601562 68.945312 165.617188 67.785156 167.484375 C 66.761719 173.820312 66.214844 180.3125 66.183594 186.933594 C 66.933594 180.574219 69.664062 168.628906 79.617188 167.242188 C 92.84375 165.402344 70.027344 175.25 66.203125 189.546875 C 66.746094 223.140625 80.578125 253.507812 102.679688 275.601562 C 125.222656 298.148438 156.375 312.097656 190.78125 312.097656 C 225.1875 312.097656 256.335938 298.152344 278.882812 275.601562 C 301.425781 253.058594 315.378906 221.902344 315.378906 187.503906 C 315.378906 153.101562 301.417969 121.945312 278.875 99.394531 M 67.902344 163.074219 C 66.398438 158.410156 55.460938 155.527344 61.242188 151.984375 C 66.398438 148.824219 68 157.855469 68.375 160.800781 C 68.542969 160.035156 68.714844 159.277344 68.894531 158.527344 C 69.824219 149.902344 69.953125 133.574219 59.699219 123.933594 C 59.699219 123.933594 75.917969 120.324219 71.160156 150.230469 C 73.542969 142.582031 76.636719 135.242188 80.371094 128.300781 C 82.660156 122.554688 85.691406 113.1875 89.355469 105.695312 C 88.640625 105.054688 86.597656 102.628906 87.195312 96.171875 C 86.746094 95.976562 86.457031 95.507812 86.511719 94.992188 C 86.789062 92.546875 88.042969 89.496094 88.050781 89.484375 C 88.277344 88.894531 88.9375 88.597656 89.527344 88.824219 C 90.121094 89.054688 90.414062 89.710938 90.1875 90.304688 C 90.1875 90.308594 89.035156 93.113281 88.789062 95.242188 C 88.734375 95.765625 88.335938 96.167969 87.835938 96.253906 C 87.285156 102.117188 88.949219 104.402344 89.652344 105.09375 C 90.882812 102.636719 92.191406 100.40625 93.558594 98.601562 C 93.570312 98.589844 97.117188 93.957031 99.5 90.308594 C 99.1875 89.527344 98.035156 86.011719 99.808594 80.609375 C 99.636719 80.417969 99.5625 80.144531 99.644531 79.882812 C 100.105469 78.292969 101.28125 76.40625 101.289062 76.402344 C 101.503906 76.03125 101.976562 75.914062 102.339844 76.128906 C 102.710938 76.347656 102.828125 76.820312 102.613281 77.183594 C 102.613281 77.191406 101.527344 78.914062 101.128906 80.300781 C 101.035156 80.632812 100.734375 80.847656 100.414062 80.859375 C 98.953125 85.351562 99.582031 88.429688 99.957031 89.636719 C 102.445312 86.089844 106.617188 82.554688 106.628906 82.546875 L 106.835938 82.796875 L 107.046875 83.042969 C 107.035156 83.054688 102.507812 86.886719 100.140625 90.519531 C 98.609375 92.871094 96.5625 95.675781 95.28125 97.386719 C 97.296875 96.027344 100.746094 93.769531 103.277344 92.546875 C 103.300781 92.3125 103.425781 92.097656 103.640625 91.960938 C 104.867188 91.203125 106.238281 89.699219 106.246094 89.695312 C 106.542969 89.386719 107.027344 89.378906 107.335938 89.667969 C 107.644531 89.964844 107.652344 90.453125 107.359375 90.757812 C 107.355469 90.765625 105.859375 92.402344 104.453125 93.277344 C 104.140625 93.46875 103.746094 93.414062 103.5 93.160156 C 99.964844 94.886719 94.652344 98.601562 94.0625 99.011719 L 90.058594 105.75 L 82.765625 124.019531 C 88.175781 114.84375 94.714844 106.410156 102.199219 98.925781 C 124.867188 76.257812 156.175781 62.242188 190.761719 62.242188 C 225.347656 62.242188 256.664062 76.257812 279.324219 98.925781 C 301.992188 121.59375 316.011719 152.902344 316.011719 187.488281 C 316.011719 222.074219 301.992188 253.390625 279.324219 276.054688 C 256.65625 298.71875 225.347656 312.738281 190.761719 312.738281 C 156.175781 312.738281 124.867188 298.71875 102.199219 276.054688 C 79.53125 253.386719 65.511719 222.074219 65.511719 187.488281 C 65.511719 184.625 65.609375 181.78125 65.800781 178.957031 C 65.746094 178.464844 64.558594 168.027344 58.988281 162.832031 C 58.40625 162.796875 57.597656 162.363281 56.890625 161.648438 C 55.859375 160.621094 55.417969 159.402344 55.890625 158.921875 C 56.371094 158.441406 57.589844 158.882812 58.625 159.914062 C 59.617188 160.898438 60.066406 162.070312 59.671875 162.585938 C 63.566406 166.40625 65.308594 172.65625 66.023438 176.21875 C 66.425781 171.769531 67.050781 167.386719 67.902344 163.074219 Z M 108.800781 81.050781 L 106.84375 82.800781 C 106.84375 82.800781 111.914062 82.949219 112 80.792969 C 112.085938 78.636719 109.003906 80.277344 108.265625 81.539062 C 108.265625 81.539062 108.808594 79.929688 108.507812 78.980469 C 108.203125 78.035156 106.4375 78.035156 106.394531 79.242188 C 106.351562 80.449219 106.851562 82.800781 106.851562 82.800781 " fill-opacity="1" fill-rule="evenodd"/></g><g fill="#000000" fill-opacity="1"><g transform="translate(93.257922, 239.994983)"><g><path d="M 7.71875 -56.484375 C 7.71875 -64.503906 9.15625 -72.015625 12.03125 -79.015625 C 14.914062 -86.015625 18.878906 -92.132812 23.921875 -97.375 C 28.960938 -102.625 34.828125 -106.738281 41.515625 -109.71875 C 48.203125 -112.707031 55.351562 -114.203125 62.96875 -114.203125 C 70.582031 -114.203125 77.757812 -112.707031 84.5 -109.71875 C 91.238281 -106.738281 97.175781 -102.625 102.3125 -97.375 C 107.457031 -92.132812 111.46875 -86.015625 114.34375 -79.015625 C 117.226562 -72.015625 118.671875 -64.503906 118.671875 -56.484375 C 118.671875 -48.460938 117.226562 -40.925781 114.34375 -33.875 C 111.46875 -26.820312 107.457031 -20.617188 102.3125 -15.265625 C 97.175781 -9.921875 91.238281 -5.726562 84.5 -2.6875 C 77.757812 0.34375 70.582031 1.859375 62.96875 1.859375 C 55.351562 1.859375 48.203125 0.34375 41.515625 -2.6875 C 34.828125 -5.726562 28.960938 -9.921875 23.921875 -15.265625 C 18.878906 -20.617188 14.914062 -26.820312 12.03125 -33.875 C 9.15625 -40.925781 7.71875 -48.460938 7.71875 -56.484375 Z M 61.421875 -112.046875 C 55.554688 -112.046875 50.4375 -110.601562 46.0625 -107.71875 C 41.695312 -104.84375 38.046875 -100.882812 35.109375 -95.84375 C 32.179688 -90.800781 29.96875 -85.035156 28.46875 -78.546875 C 26.976562 -72.066406 26.234375 -65.28125 26.234375 -58.1875 C 26.234375 -50.769531 26.976562 -43.585938 28.46875 -36.640625 C 29.96875 -29.703125 32.257812 -23.503906 35.34375 -18.046875 C 38.425781 -12.597656 42.382812 -8.28125 47.21875 -5.09375 C 52.0625 -1.90625 57.828125 -0.3125 64.515625 -0.3125 C 70.679688 -0.3125 76.003906 -1.75 80.484375 -4.625 C 84.960938 -7.507812 88.664062 -11.445312 91.59375 -16.4375 C 94.519531 -21.425781 96.675781 -27.210938 98.0625 -33.796875 C 99.457031 -40.378906 100.15625 -47.375 100.15625 -54.78125 C 100.15625 -61.988281 99.4375 -68.984375 98 -75.765625 C 96.5625 -82.554688 94.296875 -88.675781 91.203125 -94.125 C 88.117188 -99.582031 84.109375 -103.929688 79.171875 -107.171875 C 74.234375 -110.421875 68.316406 -112.046875 61.421875 -112.046875 Z M 61.421875 -112.046875 "/></g></g></g><g clip-path="url(#edc47164a2)"><path fill="#ffffff" d="M 166.707031 152.804688 L 291.222656 152.804688 L 291.222656 253.363281 L 166.707031 253.363281 Z M 166.707031 152.804688 " fill-opacity="1" fill-rule="nonzero"/></g><g fill="#000000" fill-opacity="1"><g transform="translate(160.589658, 237.299788)"><g><path d="M 2.265625 -110.28125 L 44.171875 -110.28125 L 44.171875 -108.46875 C 39.128906 -108.46875 35.722656 -108.015625 33.953125 -107.109375 C 32.191406 -106.203125 32.117188 -104.035156 33.734375 -100.609375 L 72.3125 -20.875 L 99.84375 -99.390625 C 100.957031 -102.617188 100.957031 -104.910156 99.84375 -106.265625 C 98.738281 -107.628906 95.816406 -108.3125 91.078125 -108.3125 L 91.078125 -110.28125 L 115.734375 -110.28125 L 115.734375 -108.3125 C 111.492188 -108.3125 108.414062 -107.707031 106.5 -106.5 C 104.582031 -105.289062 103.019531 -102.867188 101.8125 -99.234375 L 67.015625 0 L 64.75 1.8125 L 15.890625 -99.390625 C 14.273438 -102.921875 12.632812 -105.289062 10.96875 -106.5 C 9.300781 -107.707031 6.398438 -108.3125 2.265625 -108.3125 Z M 2.265625 -110.28125 "/></g></g></g><g clip-path="url(#4da07b9c5f)"><path fill="#ffffff" d="M 97.664062 198.210938 L 261.433594 198.210938 L 261.433594 221.3125 L 97.664062 221.3125 Z M 97.664062 198.210938 " fill-opacity="1" fill-rule="nonzero"/></g><g fill="#000000" fill-opacity="1"><g transform="translate(130.283271, 213.696576)"><g><path d="M 12.640625 -15.125 C 13.179688 -14.625 13.632812 -13.910156 14 -12.984375 C 14.363281 -12.066406 14.601562 -10.984375 14.71875 -9.734375 C 14.84375 -8.484375 14.804688 -7.109375 14.609375 -5.609375 C 14.421875 -4.117188 14.039062 -2.539062 13.46875 -0.875 C 12.894531 0.800781 12.265625 2.238281 11.578125 3.4375 C 10.890625 4.644531 10.171875 5.625 9.421875 6.375 C 8.679688 7.132812 7.941406 7.695312 7.203125 8.0625 C 6.472656 8.425781 5.785156 8.609375 5.140625 8.609375 C 4.785156 8.609375 4.453125 8.5625 4.140625 8.46875 C 3.367188 8.226562 2.71875 7.734375 2.1875 6.984375 C 1.65625 6.234375 1.28125 5.28125 1.0625 4.125 C 0.832031 2.84375 0.796875 1.375 0.953125 -0.28125 C 1.109375 -1.945312 1.453125 -3.742188 1.984375 -5.671875 C 2.222656 -6.523438 2.507812 -7.382812 2.84375 -8.25 C 3.1875 -9.125 3.578125 -9.9375 4.015625 -10.6875 C 4.460938 -11.445312 4.945312 -12.097656 5.46875 -12.640625 C 6 -13.191406 6.554688 -13.566406 7.140625 -13.765625 C 7.347656 -13.835938 7.550781 -13.882812 7.75 -13.90625 C 8.394531 -14.832031 9.085938 -15.445312 9.828125 -15.75 C 10.835938 -16.15625 11.773438 -15.945312 12.640625 -15.125 Z M 12.84375 -1.09375 C 13.382812 -2.675781 13.75 -4.179688 13.9375 -5.609375 C 14.125 -7.046875 14.164062 -8.359375 14.0625 -9.546875 C 13.957031 -10.734375 13.738281 -11.765625 13.40625 -12.640625 C 13.082031 -13.515625 12.679688 -14.179688 12.203125 -14.640625 C 11.960938 -14.859375 11.660156 -15.039062 11.296875 -15.1875 C 10.941406 -15.332031 10.535156 -15.3125 10.078125 -15.125 C 9.816406 -15.019531 9.554688 -14.859375 9.296875 -14.640625 C 9.046875 -14.429688 8.789062 -14.171875 8.53125 -13.859375 C 8.9375 -13.765625 9.332031 -13.566406 9.71875 -13.265625 C 9.78125 -13.203125 9.816406 -13.125 9.828125 -13.03125 C 9.835938 -12.945312 9.816406 -12.867188 9.765625 -12.796875 C 9.703125 -12.734375 9.628906 -12.691406 9.546875 -12.671875 C 9.460938 -12.660156 9.378906 -12.6875 9.296875 -12.75 C 8.910156 -13.050781 8.519531 -13.210938 8.125 -13.234375 C 7.570312 -12.367188 7.050781 -11.191406 6.5625 -9.703125 C 6.082031 -8.222656 5.671875 -6.398438 5.328125 -4.234375 C 4.992188 -2.066406 4.757812 0.488281 4.625 3.4375 C 4.625 3.53125 4.585938 3.609375 4.515625 3.671875 C 4.453125 3.734375 4.375 3.765625 4.28125 3.765625 C 4.1875 3.753906 4.109375 3.710938 4.046875 3.640625 C 3.984375 3.566406 3.957031 3.492188 3.96875 3.421875 C 4.125 -0.359375 4.488281 -3.65625 5.0625 -6.46875 C 5.644531 -9.28125 6.378906 -11.492188 7.265625 -13.109375 C 6.691406 -12.890625 6.117188 -12.429688 5.546875 -11.734375 C 4.972656 -11.035156 4.429688 -10.148438 3.921875 -9.078125 C 3.421875 -8.015625 2.988281 -6.820312 2.625 -5.5 C 2.0625 -3.46875 1.710938 -1.660156 1.578125 -0.078125 C 1.453125 1.492188 1.492188 2.832031 1.703125 3.9375 C 1.910156 5.039062 2.242188 5.914062 2.703125 6.5625 C 3.160156 7.207031 3.703125 7.628906 4.328125 7.828125 C 4.941406 8.023438 5.617188 7.988281 6.359375 7.71875 C 7.097656 7.457031 7.851562 6.957031 8.625 6.21875 C 9.394531 5.488281 10.140625 4.515625 10.859375 3.296875 C 11.585938 2.085938 12.25 0.625 12.84375 -1.09375 Z M 12.84375 -1.09375 "/></g></g></g><g fill="#000000" fill-opacity="1"><g transform="translate(146.133766, 213.696576)"><g><path d="M 6.953125 -3.84375 C 7.035156 -3.800781 7.085938 -3.734375 7.109375 -3.640625 C 7.128906 -3.554688 7.117188 -3.472656 7.078125 -3.390625 C 6.535156 -2.441406 6.046875 -1.710938 5.609375 -1.203125 C 5.179688 -0.691406 4.742188 -0.460938 4.296875 -0.515625 C 3.722656 -0.585938 3.269531 -1.207031 2.9375 -2.375 C 2.820312 -2.757812 2.71875 -3.035156 2.625 -3.203125 C 2.539062 -3.367188 2.472656 -3.472656 2.421875 -3.515625 C 2.367188 -3.554688 2.332031 -3.578125 2.3125 -3.578125 C 2.28125 -3.585938 2.210938 -3.550781 2.109375 -3.46875 C 2.003906 -3.382812 1.851562 -3.203125 1.65625 -2.921875 C 1.457031 -2.648438 1.210938 -2.222656 0.921875 -1.640625 C 0.640625 -1.066406 0.289062 -0.273438 -0.125 0.734375 C -0.175781 0.878906 -0.269531 0.953125 -0.40625 0.953125 C -0.445312 0.953125 -0.476562 0.945312 -0.5 0.9375 C -0.695312 0.882812 -0.785156 0.757812 -0.765625 0.5625 C -0.703125 0.09375 -0.59375 -0.445312 -0.4375 -1.0625 C -0.289062 -1.6875 -0.128906 -2.320312 0.046875 -2.96875 C 0.222656 -3.613281 0.382812 -4.1875 0.53125 -4.6875 C 0.570312 -4.800781 0.601562 -4.90625 0.625 -5 C 0.65625 -5.101562 0.679688 -5.203125 0.703125 -5.296875 C 0.742188 -5.390625 0.800781 -5.453125 0.875 -5.484375 C 0.957031 -5.523438 1.039062 -5.535156 1.125 -5.515625 C 1.21875 -5.492188 1.285156 -5.441406 1.328125 -5.359375 C 1.367188 -5.285156 1.375 -5.203125 1.34375 -5.109375 C 1.320312 -5.015625 1.296875 -4.914062 1.265625 -4.8125 C 1.234375 -4.71875 1.203125 -4.613281 1.171875 -4.5 C 1.085938 -4.195312 0.992188 -3.867188 0.890625 -3.515625 C 0.785156 -3.160156 0.6875 -2.800781 0.59375 -2.4375 C 0.976562 -3.164062 1.304688 -3.648438 1.578125 -3.890625 C 1.859375 -4.140625 2.113281 -4.257812 2.34375 -4.25 C 2.664062 -4.21875 2.914062 -4.035156 3.09375 -3.703125 C 3.28125 -3.367188 3.441406 -2.984375 3.578125 -2.546875 C 3.742188 -1.953125 3.898438 -1.570312 4.046875 -1.40625 C 4.203125 -1.25 4.3125 -1.171875 4.375 -1.171875 C 4.53125 -1.148438 4.707031 -1.234375 4.90625 -1.421875 C 5.101562 -1.609375 5.300781 -1.847656 5.5 -2.140625 C 5.707031 -2.441406 5.898438 -2.734375 6.078125 -3.015625 C 6.253906 -3.304688 6.390625 -3.539062 6.484375 -3.71875 C 6.535156 -3.800781 6.601562 -3.851562 6.6875 -3.875 C 6.78125 -3.90625 6.867188 -3.894531 6.953125 -3.84375 Z M 6.953125 -3.84375 "/></g></g></g><g fill="#000000" fill-opacity="1"><g transform="translate(152.291139, 213.696576)"><g><path d="M 5.828125 -3.84375 C 5.910156 -3.800781 5.957031 -3.734375 5.96875 -3.640625 C 5.976562 -3.546875 5.960938 -3.460938 5.921875 -3.390625 C 5.242188 -2.453125 4.617188 -1.675781 4.046875 -1.0625 C 3.484375 -0.445312 2.921875 0.0625 2.359375 0.46875 C 1.929688 0.769531 1.515625 0.921875 1.109375 0.921875 C 0.785156 0.921875 0.503906 0.832031 0.265625 0.65625 C 0.0976562 0.539062 -0.0625 0.335938 -0.21875 0.046875 C -0.375 -0.242188 -0.457031 -0.664062 -0.46875 -1.21875 C -0.476562 -1.78125 -0.335938 -2.519531 -0.046875 -3.4375 C -0.046875 -3.4375 -0.046875 -3.441406 -0.046875 -3.453125 C 0.296875 -4.554688 0.695312 -5.394531 1.15625 -5.96875 C 1.625 -6.550781 2.023438 -6.847656 2.359375 -6.859375 C 2.628906 -6.867188 2.800781 -6.753906 2.875 -6.515625 C 3.007812 -6.179688 2.863281 -5.707031 2.4375 -5.09375 C 2.007812 -4.476562 1.378906 -3.828125 0.546875 -3.140625 C 0.296875 -2.335938 0.175781 -1.707031 0.1875 -1.25 C 0.195312 -0.789062 0.257812 -0.460938 0.375 -0.265625 C 0.488281 -0.0664062 0.582031 0.0625 0.65625 0.125 C 1 0.375 1.441406 0.300781 1.984375 -0.09375 C 2.515625 -0.457031 3.050781 -0.9375 3.59375 -1.53125 C 4.132812 -2.125 4.722656 -2.875 5.359375 -3.78125 C 5.421875 -3.84375 5.5 -3.882812 5.59375 -3.90625 C 5.6875 -3.925781 5.765625 -3.90625 5.828125 -3.84375 Z M 2.25 -6.140625 C 2.113281 -6.054688 1.9375 -5.882812 1.71875 -5.625 C 1.5 -5.375 1.273438 -5 1.046875 -4.5 C 1.460938 -4.90625 1.753906 -5.25 1.921875 -5.53125 C 2.097656 -5.8125 2.207031 -6.015625 2.25 -6.140625 Z M 2.25 -6.140625 "/></g></g></g><g fill="#000000" fill-opacity="1"><g transform="translate(157.310176, 213.696576)"><g><path d="M 5.046875 -3.9375 C 5.128906 -3.882812 5.179688 -3.8125 5.203125 -3.71875 C 5.222656 -3.632812 5.207031 -3.550781 5.15625 -3.46875 C 4.9375 -3.125 4.660156 -2.738281 4.328125 -2.3125 C 3.992188 -1.882812 3.628906 -1.476562 3.234375 -1.09375 C 2.847656 -0.707031 2.460938 -0.390625 2.078125 -0.140625 C 1.691406 0.109375 1.335938 0.234375 1.015625 0.234375 C 0.878906 0.234375 0.757812 0.210938 0.65625 0.171875 C 0.257812 -0.00390625 0.0390625 -0.421875 0 -1.078125 C -0.03125 -1.734375 0.101562 -2.664062 0.40625 -3.875 C 0.4375 -3.96875 0.488281 -4.035156 0.5625 -4.078125 C 0.644531 -4.128906 0.726562 -4.144531 0.8125 -4.125 C 0.90625 -4.101562 0.972656 -4.050781 1.015625 -3.96875 C 1.066406 -3.882812 1.078125 -3.800781 1.046875 -3.71875 C 0.867188 -2.988281 0.753906 -2.40625 0.703125 -1.96875 C 0.660156 -1.539062 0.648438 -1.21875 0.671875 -1 C 0.703125 -0.78125 0.742188 -0.632812 0.796875 -0.5625 C 0.859375 -0.488281 0.898438 -0.453125 0.921875 -0.453125 C 1.066406 -0.378906 1.28125 -0.425781 1.5625 -0.59375 C 1.851562 -0.757812 2.175781 -1.003906 2.53125 -1.328125 C 2.894531 -1.660156 3.253906 -2.039062 3.609375 -2.46875 C 3.972656 -2.90625 4.300781 -3.359375 4.59375 -3.828125 C 4.644531 -3.910156 4.710938 -3.957031 4.796875 -3.96875 C 4.890625 -3.988281 4.972656 -3.976562 5.046875 -3.9375 Z M 0.984375 -5.3125 C 0.753906 -5.320312 0.632812 -5.382812 0.625 -5.5 C 0.625 -5.625 0.675781 -5.75 0.78125 -5.875 C 0.894531 -6.007812 1.007812 -6.097656 1.125 -6.140625 C 1.300781 -6.203125 1.429688 -6.191406 1.515625 -6.109375 C 1.609375 -6.023438 1.648438 -5.921875 1.640625 -5.796875 C 1.640625 -5.671875 1.582031 -5.554688 1.46875 -5.453125 C 1.363281 -5.347656 1.203125 -5.300781 0.984375 -5.3125 Z M 0.984375 -5.3125 "/></g></g></g><g fill="#000000" fill-opacity="1"><g transform="translate(161.673809, 213.696576)"><g><path d="M 7.578125 -3.921875 C 7.648438 -3.867188 7.703125 -3.800781 7.734375 -3.71875 C 7.773438 -3.632812 7.773438 -3.550781 7.734375 -3.46875 C 7.515625 -3 7.242188 -2.46875 6.921875 -1.875 C 6.609375 -1.289062 6.269531 -0.703125 5.90625 -0.109375 C 5.550781 0.484375 5.191406 1.023438 4.828125 1.515625 C 4.460938 2.003906 4.109375 2.398438 3.765625 2.703125 C 3.421875 3.003906 3.109375 3.15625 2.828125 3.15625 C 2.742188 3.15625 2.671875 3.140625 2.609375 3.109375 C 2.367188 3.015625 2.207031 2.796875 2.125 2.453125 C 2.050781 2.109375 2.0625 1.613281 2.15625 0.96875 C 2.3125 -0.195312 2.738281 -1.84375 3.4375 -3.96875 C 3.425781 -3.96875 3.414062 -3.960938 3.40625 -3.953125 C 3.394531 -3.953125 3.382812 -3.953125 3.375 -3.953125 C 3.144531 -3.785156 2.867188 -3.613281 2.546875 -3.4375 C 2.222656 -3.269531 1.890625 -3.15625 1.546875 -3.09375 C 1.203125 -3.039062 0.875 -3.117188 0.5625 -3.328125 C 0.125 -3.640625 -0.0976562 -4.070312 -0.109375 -4.625 C -0.117188 -5.175781 0.0859375 -5.78125 0.515625 -6.4375 C 0.648438 -6.644531 0.828125 -6.875 1.046875 -7.125 C 1.273438 -7.375 1.515625 -7.566406 1.765625 -7.703125 C 2.015625 -7.847656 2.238281 -7.859375 2.4375 -7.734375 C 2.539062 -7.671875 2.617188 -7.570312 2.671875 -7.4375 C 2.722656 -7.300781 2.71875 -7.085938 2.65625 -6.796875 C 2.59375 -6.503906 2.453125 -6.117188 2.234375 -5.640625 C 2.023438 -5.160156 1.703125 -4.535156 1.265625 -3.765625 C 1.523438 -3.722656 1.816406 -3.796875 2.140625 -3.984375 C 2.472656 -4.171875 2.765625 -4.34375 3.015625 -4.5 C 3.253906 -4.664062 3.453125 -4.785156 3.609375 -4.859375 C 3.773438 -4.929688 3.929688 -4.914062 4.078125 -4.8125 C 4.203125 -4.707031 4.25 -4.578125 4.21875 -4.421875 C 4.195312 -4.273438 4.175781 -4.164062 4.15625 -4.09375 C 3.78125 -2.894531 3.488281 -1.894531 3.28125 -1.09375 C 3.070312 -0.300781 2.929688 0.332031 2.859375 0.8125 C 2.785156 1.289062 2.75 1.648438 2.75 1.890625 C 2.75 2.140625 2.765625 2.300781 2.796875 2.375 C 2.828125 2.445312 2.84375 2.488281 2.84375 2.5 C 2.976562 2.519531 3.257812 2.296875 3.6875 1.828125 C 4.125 1.367188 4.640625 0.671875 5.234375 -0.265625 C 5.835938 -1.203125 6.46875 -2.363281 7.125 -3.75 C 7.164062 -3.832031 7.226562 -3.890625 7.3125 -3.921875 C 7.40625 -3.953125 7.492188 -3.953125 7.578125 -3.921875 Z M 0.625 -5.09375 C 0.550781 -4.84375 0.53125 -4.640625 0.5625 -4.484375 C 0.59375 -4.335938 0.632812 -4.21875 0.6875 -4.125 C 1.050781 -4.769531 1.328125 -5.289062 1.515625 -5.6875 C 1.710938 -6.09375 1.84375 -6.40625 1.90625 -6.625 C 1.976562 -6.84375 2.019531 -7 2.03125 -7.09375 C 1.90625 -7.019531 1.75 -6.882812 1.5625 -6.6875 C 1.375 -6.5 1.1875 -6.265625 1 -5.984375 C 0.820312 -5.710938 0.695312 -5.414062 0.625 -5.09375 Z M 0.625 -5.09375 "/></g></g></g><g fill="#000000" fill-opacity="1"><g transform="translate(168.55558, 213.696576)"><g><path d="M 6.25 -3.765625 C 6.320312 -3.703125 6.363281 -3.625 6.375 -3.53125 C 6.394531 -3.4375 6.375 -3.359375 6.3125 -3.296875 C 6.007812 -2.910156 5.660156 -2.566406 5.265625 -2.265625 C 4.867188 -1.972656 4.453125 -1.753906 4.015625 -1.609375 C 3.585938 -1.460938 3.175781 -1.4375 2.78125 -1.53125 C 2.613281 -1.132812 2.382812 -0.828125 2.09375 -0.609375 C 1.800781 -0.390625 1.503906 -0.28125 1.203125 -0.28125 C 1.203125 -0.28125 1.195312 -0.28125 1.1875 -0.28125 C 0.875 -0.289062 0.597656 -0.394531 0.359375 -0.59375 C 0.128906 -0.789062 -0.03125 -1.070312 -0.125 -1.4375 C -0.226562 -1.832031 -0.242188 -2.210938 -0.171875 -2.578125 C -0.0976562 -2.941406 0.0234375 -3.257812 0.203125 -3.53125 C 0.390625 -3.8125 0.597656 -4.023438 0.828125 -4.171875 C 0.910156 -4.234375 1.003906 -4.242188 1.109375 -4.203125 C 1.210938 -4.460938 1.359375 -4.660156 1.546875 -4.796875 C 1.734375 -4.929688 1.929688 -4.984375 2.140625 -4.953125 C 2.265625 -4.929688 2.398438 -4.851562 2.546875 -4.71875 C 2.703125 -4.582031 2.820312 -4.34375 2.90625 -4 C 3 -3.664062 3.03125 -3.171875 3 -2.515625 C 2.988281 -2.398438 2.972656 -2.285156 2.953125 -2.171875 C 3.265625 -2.117188 3.59375 -2.15625 3.9375 -2.28125 C 4.28125 -2.40625 4.613281 -2.597656 4.9375 -2.859375 C 5.257812 -3.117188 5.539062 -3.398438 5.78125 -3.703125 C 5.832031 -3.773438 5.90625 -3.816406 6 -3.828125 C 6.09375 -3.835938 6.175781 -3.816406 6.25 -3.765625 Z M 1.203125 -0.953125 C 1.359375 -0.953125 1.523438 -1.019531 1.703125 -1.15625 C 1.890625 -1.289062 2.039062 -1.5 2.15625 -1.78125 C 1.738281 -2.007812 1.441406 -2.269531 1.265625 -2.5625 C 1.085938 -2.863281 0.992188 -3.164062 0.984375 -3.46875 C 0.742188 -3.238281 0.582031 -2.941406 0.5 -2.578125 C 0.425781 -2.222656 0.429688 -1.90625 0.515625 -1.625 C 0.546875 -1.5 0.613281 -1.351562 0.71875 -1.1875 C 0.820312 -1.03125 0.984375 -0.953125 1.203125 -0.953125 Z M 2.328125 -2.546875 C 2.347656 -3.015625 2.335938 -3.375 2.296875 -3.625 C 2.265625 -3.875 2.21875 -4.046875 2.15625 -4.140625 C 2.09375 -4.234375 2.050781 -4.285156 2.03125 -4.296875 C 2.019531 -4.296875 2.015625 -4.296875 2.015625 -4.296875 C 1.984375 -4.296875 1.929688 -4.257812 1.859375 -4.1875 C 1.796875 -4.125 1.738281 -4.019531 1.6875 -3.875 C 1.625 -3.65625 1.628906 -3.414062 1.703125 -3.15625 C 1.785156 -2.90625 1.992188 -2.671875 2.328125 -2.453125 C 2.328125 -2.484375 2.328125 -2.515625 2.328125 -2.546875 Z M 2.328125 -2.546875 "/></g></g></g><g fill="#000000" fill-opacity="1"><g transform="translate(174.074795, 213.696576)"><g><path d="M 7.671875 -3.953125 C 7.742188 -3.890625 7.785156 -3.8125 7.796875 -3.71875 C 7.804688 -3.632812 7.773438 -3.554688 7.703125 -3.484375 C 7.367188 -3.085938 7 -2.65625 6.59375 -2.1875 C 6.195312 -1.71875 5.804688 -1.257812 5.421875 -0.8125 C 5.035156 -0.363281 4.703125 0.0195312 4.421875 0.34375 C 4.148438 0.675781 3.96875 0.898438 3.875 1.015625 C 3.6875 1.265625 3.5 1.515625 3.3125 1.765625 C 3.457031 2.429688 3.46875 3.054688 3.34375 3.640625 C 3.226562 4.234375 3.03125 4.757812 2.75 5.21875 C 2.46875 5.6875 2.171875 6.046875 1.859375 6.296875 C 1.535156 6.566406 1.238281 6.703125 0.96875 6.703125 C 0.789062 6.703125 0.644531 6.644531 0.53125 6.53125 C 0.332031 6.351562 0.265625 6.082031 0.328125 5.71875 C 0.398438 5.351562 0.550781 4.941406 0.78125 4.484375 C 1.007812 4.023438 1.285156 3.546875 1.609375 3.046875 C 1.929688 2.554688 2.257812 2.082031 2.59375 1.625 C 2.53125 1.414062 2.445312 1.203125 2.34375 0.984375 C 2.238281 0.773438 2.117188 0.5625 1.984375 0.34375 C 1.515625 -0.363281 1.113281 -1.03125 0.78125 -1.65625 C 0.457031 -2.289062 0.304688 -2.863281 0.328125 -3.375 C 0.378906 -4.332031 0.804688 -5.046875 1.609375 -5.515625 C 1.929688 -5.710938 2.269531 -5.828125 2.625 -5.859375 C 2.976562 -5.898438 3.304688 -5.847656 3.609375 -5.703125 C 3.679688 -5.660156 3.734375 -5.59375 3.765625 -5.5 C 3.796875 -5.414062 3.796875 -5.335938 3.765625 -5.265625 C 3.710938 -5.179688 3.644531 -5.125 3.5625 -5.09375 C 3.476562 -5.0625 3.394531 -5.066406 3.3125 -5.109375 C 2.894531 -5.304688 2.441406 -5.253906 1.953125 -4.953125 C 1.347656 -4.597656 1.03125 -4.0625 1 -3.34375 C 0.976562 -2.914062 1.117188 -2.414062 1.421875 -1.84375 C 1.734375 -1.269531 2.101562 -0.664062 2.53125 -0.03125 C 2.75 0.300781 2.929688 0.640625 3.078125 0.984375 C 3.160156 0.867188 3.253906 0.742188 3.359375 0.609375 C 3.453125 0.492188 3.640625 0.269531 3.921875 -0.0625 C 4.203125 -0.394531 4.53125 -0.785156 4.90625 -1.234375 C 5.289062 -1.691406 5.6875 -2.15625 6.09375 -2.625 C 6.5 -3.09375 6.867188 -3.523438 7.203125 -3.921875 C 7.265625 -3.984375 7.34375 -4.019531 7.4375 -4.03125 C 7.53125 -4.039062 7.609375 -4.015625 7.671875 -3.953125 Z M 2.0625 5.078125 C 2.144531 4.941406 2.242188 4.753906 2.359375 4.515625 C 2.472656 4.285156 2.570312 4 2.65625 3.65625 C 2.75 3.320312 2.78125 2.945312 2.75 2.53125 C 2.21875 3.28125 1.820312 3.898438 1.5625 4.390625 C 1.300781 4.890625 1.132812 5.269531 1.0625 5.53125 C 0.988281 5.789062 0.960938 5.957031 0.984375 6.03125 C 1.066406 6.03125 1.207031 5.957031 1.40625 5.8125 C 1.613281 5.664062 1.832031 5.421875 2.0625 5.078125 Z M 2.0625 5.078125 "/></g></g></g><g fill="#000000" fill-opacity="1"><g transform="translate(181.02556, 213.696576)"><g><path d="M 18.171875 -16.859375 C 18.242188 -16.804688 18.296875 -16.738281 18.328125 -16.65625 C 18.359375 -16.570312 18.351562 -16.488281 18.3125 -16.40625 C 18.226562 -16.226562 18.125 -16.019531 18 -15.78125 C 17.875 -15.539062 17.738281 -15.273438 17.59375 -14.984375 C 17.226562 -14.253906 16.78125 -13.375 16.25 -12.34375 C 15.726562 -11.320312 15.15625 -10.21875 14.53125 -9.03125 C 13.914062 -7.851562 13.269531 -6.640625 12.59375 -5.390625 C 11.925781 -4.148438 11.25 -2.941406 10.5625 -1.765625 C 9.71875 -0.316406 8.96875 0.90625 8.3125 1.90625 C 7.664062 2.914062 7.09375 3.734375 6.59375 4.359375 C 6.101562 4.992188 5.675781 5.484375 5.3125 5.828125 C 4.957031 6.171875 4.648438 6.410156 4.390625 6.546875 C 4.140625 6.679688 3.925781 6.75 3.75 6.75 C 3.664062 6.75 3.582031 6.734375 3.5 6.703125 C 3.1875 6.640625 2.957031 6.453125 2.8125 6.140625 C 2.675781 5.828125 2.585938 5.46875 2.546875 5.0625 C 2.503906 4.65625 2.488281 4.269531 2.5 3.90625 C 2.507812 3.320312 2.570312 2.609375 2.6875 1.765625 C 2.800781 0.929688 2.953125 0.0078125 3.140625 -1 C 3.335938 -2.007812 3.550781 -3.054688 3.78125 -4.140625 C 4.019531 -5.234375 4.265625 -6.304688 4.515625 -7.359375 C 4.773438 -8.421875 5.019531 -9.425781 5.25 -10.375 C 5.476562 -11.320312 5.675781 -12.15625 5.84375 -12.875 C 5.925781 -13.175781 6 -13.453125 6.0625 -13.703125 C 6.125 -13.953125 6.171875 -14.171875 6.203125 -14.359375 C 6.367188 -15.003906 6.453125 -15.488281 6.453125 -15.8125 C 6.453125 -16.144531 6.421875 -16.367188 6.359375 -16.484375 C 6.296875 -16.597656 6.257812 -16.664062 6.25 -16.6875 C 6.175781 -16.726562 6.046875 -16.71875 5.859375 -16.65625 C 5.679688 -16.601562 5.4375 -16.457031 5.125 -16.21875 C 4.757812 -15.9375 4.382812 -15.570312 4 -15.125 C 3.625 -14.6875 3.265625 -14.203125 2.921875 -13.671875 C 2.585938 -13.148438 2.300781 -12.613281 2.0625 -12.0625 C 1.820312 -11.519531 1.660156 -11 1.578125 -10.5 C 1.492188 -10.007812 1.515625 -9.570312 1.640625 -9.1875 C 1.890625 -8.414062 2.644531 -8.019531 3.90625 -8 C 3.988281 -8 4.0625 -7.960938 4.125 -7.890625 C 4.1875 -7.828125 4.21875 -7.75 4.21875 -7.65625 C 4.21875 -7.570312 4.1875 -7.492188 4.125 -7.421875 C 4.0625 -7.359375 3.988281 -7.332031 3.90625 -7.34375 C 3.257812 -7.34375 2.738281 -7.425781 2.34375 -7.59375 C 1.945312 -7.769531 1.644531 -7.984375 1.4375 -8.234375 C 1.226562 -8.484375 1.082031 -8.734375 1 -8.984375 C 0.84375 -9.453125 0.8125 -9.976562 0.90625 -10.5625 C 1 -11.144531 1.179688 -11.738281 1.453125 -12.34375 C 1.722656 -12.957031 2.046875 -13.546875 2.421875 -14.109375 C 2.796875 -14.671875 3.179688 -15.179688 3.578125 -15.640625 C 3.984375 -16.097656 4.363281 -16.46875 4.71875 -16.75 C 5.21875 -17.125 5.613281 -17.320312 5.90625 -17.34375 C 6.207031 -17.375 6.441406 -17.335938 6.609375 -17.234375 C 7.171875 -16.867188 7.253906 -15.859375 6.859375 -14.203125 C 6.816406 -14.015625 6.765625 -13.796875 6.703125 -13.546875 C 6.640625 -13.296875 6.570312 -13.019531 6.5 -12.71875 C 6.332031 -12.0625 6.140625 -11.269531 5.921875 -10.34375 C 5.703125 -9.425781 5.460938 -8.441406 5.203125 -7.390625 C 4.953125 -6.335938 4.707031 -5.265625 4.46875 -4.171875 C 4.238281 -3.078125 4.023438 -2.019531 3.828125 -1 C 3.628906 0.0195312 3.46875 0.953125 3.34375 1.796875 C 3.226562 2.648438 3.164062 3.359375 3.15625 3.921875 C 3.15625 4.535156 3.1875 4.992188 3.25 5.296875 C 3.3125 5.609375 3.382812 5.8125 3.46875 5.90625 C 3.550781 6.007812 3.613281 6.066406 3.65625 6.078125 C 3.71875 6.085938 3.832031 6.0625 4 6 C 4.175781 5.945312 4.429688 5.765625 4.765625 5.453125 C 5.109375 5.148438 5.554688 4.640625 6.109375 3.921875 C 7.160156 2.535156 8.453125 0.523438 9.984375 -2.109375 C 10.660156 -3.273438 11.335938 -4.476562 12.015625 -5.71875 C 12.703125 -6.957031 13.351562 -8.164062 13.96875 -9.34375 C 14.582031 -10.53125 15.144531 -11.628906 15.65625 -12.640625 C 16.175781 -13.660156 16.628906 -14.539062 17.015625 -15.28125 C 17.160156 -15.582031 17.289062 -15.847656 17.40625 -16.078125 C 17.53125 -16.316406 17.632812 -16.523438 17.71875 -16.703125 C 17.757812 -16.773438 17.820312 -16.828125 17.90625 -16.859375 C 18 -16.890625 18.085938 -16.890625 18.171875 -16.859375 Z M 18.171875 -16.859375 "/></g></g></g><g fill="#000000" fill-opacity="1"><g transform="translate(195.668724, 213.696576)"><g><path d="M 6.25 -3.765625 C 6.320312 -3.703125 6.363281 -3.625 6.375 -3.53125 C 6.394531 -3.4375 6.375 -3.359375 6.3125 -3.296875 C 6.007812 -2.910156 5.660156 -2.566406 5.265625 -2.265625 C 4.867188 -1.972656 4.453125 -1.753906 4.015625 -1.609375 C 3.585938 -1.460938 3.175781 -1.4375 2.78125 -1.53125 C 2.613281 -1.132812 2.382812 -0.828125 2.09375 -0.609375 C 1.800781 -0.390625 1.503906 -0.28125 1.203125 -0.28125 C 1.203125 -0.28125 1.195312 -0.28125 1.1875 -0.28125 C 0.875 -0.289062 0.597656 -0.394531 0.359375 -0.59375 C 0.128906 -0.789062 -0.03125 -1.070312 -0.125 -1.4375 C -0.226562 -1.832031 -0.242188 -2.210938 -0.171875 -2.578125 C -0.0976562 -2.941406 0.0234375 -3.257812 0.203125 -3.53125 C 0.390625 -3.8125 0.597656 -4.023438 0.828125 -4.171875 C 0.910156 -4.234375 1.003906 -4.242188 1.109375 -4.203125 C 1.210938 -4.460938 1.359375 -4.660156 1.546875 -4.796875 C 1.734375 -4.929688 1.929688 -4.984375 2.140625 -4.953125 C 2.265625 -4.929688 2.398438 -4.851562 2.546875 -4.71875 C 2.703125 -4.582031 2.820312 -4.34375 2.90625 -4 C 3 -3.664062 3.03125 -3.171875 3 -2.515625 C 2.988281 -2.398438 2.972656 -2.285156 2.953125 -2.171875 C 3.265625 -2.117188 3.59375 -2.15625 3.9375 -2.28125 C 4.28125 -2.40625 4.613281 -2.597656 4.9375 -2.859375 C 5.257812 -3.117188 5.539062 -3.398438 5.78125 -3.703125 C 5.832031 -3.773438 5.90625 -3.816406 6 -3.828125 C 6.09375 -3.835938 6.175781 -3.816406 6.25 -3.765625 Z M 1.203125 -0.953125 C 1.359375 -0.953125 1.523438 -1.019531 1.703125 -1.15625 C 1.890625 -1.289062 2.039062 -1.5 2.15625 -1.78125 C 1.738281 -2.007812 1.441406 -2.269531 1.265625 -2.5625 C 1.085938 -2.863281 0.992188 -3.164062 0.984375 -3.46875 C 0.742188 -3.238281 0.582031 -2.941406 0.5 -2.578125 C 0.425781 -2.222656 0.429688 -1.90625 0.515625 -1.625 C 0.546875 -1.5 0.613281 -1.351562 0.71875 -1.1875 C 0.820312 -1.03125 0.984375 -0.953125 1.203125 -0.953125 Z M 2.328125 -2.546875 C 2.347656 -3.015625 2.335938 -3.375 2.296875 -3.625 C 2.265625 -3.875 2.21875 -4.046875 2.15625 -4.140625 C 2.09375 -4.234375 2.050781 -4.285156 2.03125 -4.296875 C 2.019531 -4.296875 2.015625 -4.296875 2.015625 -4.296875 C 1.984375 -4.296875 1.929688 -4.257812 1.859375 -4.1875 C 1.796875 -4.125 1.738281 -4.019531 1.6875 -3.875 C 1.625 -3.65625 1.628906 -3.414062 1.703125 -3.15625 C 1.785156 -2.90625 1.992188 -2.671875 2.328125 -2.453125 C 2.328125 -2.484375 2.328125 -2.515625 2.328125 -2.546875 Z M 2.328125 -2.546875 "/></g></g></g><g fill="#000000" fill-opacity="1"><g transform="translate(201.18794, 213.696576)"><g><path d="M 8.4375 -3.796875 C 8.488281 -3.722656 8.503906 -3.640625 8.484375 -3.546875 C 8.460938 -3.460938 8.414062 -3.394531 8.34375 -3.34375 C 7.507812 -2.789062 6.664062 -2.195312 5.8125 -1.5625 C 4.96875 -0.925781 4.144531 -0.203125 3.34375 0.609375 C 2.664062 4.660156 1.925781 7.953125 1.125 10.484375 C 0.945312 11.003906 0.757812 11.53125 0.5625 12.0625 C 0.363281 12.601562 0.144531 13.101562 -0.09375 13.5625 C -0.332031 14.03125 -0.582031 14.421875 -0.84375 14.734375 C -1.101562 15.054688 -1.375 15.253906 -1.65625 15.328125 C -1.738281 15.359375 -1.828125 15.375 -1.921875 15.375 C -2.179688 15.375 -2.410156 15.257812 -2.609375 15.03125 C -2.847656 14.71875 -3.003906 14.242188 -3.078125 13.609375 C -3.148438 12.972656 -3.132812 12.226562 -3.03125 11.375 C -2.925781 10.53125 -2.726562 9.628906 -2.4375 8.671875 C -2.144531 7.722656 -1.753906 6.773438 -1.265625 5.828125 C -0.660156 4.691406 -0.0234375 3.664062 0.640625 2.75 C 1.316406 1.84375 2.019531 1.019531 2.75 0.28125 C 2.914062 -0.800781 3.085938 -1.9375 3.265625 -3.125 C 3.109375 -2.894531 2.941406 -2.660156 2.765625 -2.421875 C 2.597656 -2.179688 2.429688 -1.960938 2.265625 -1.765625 C 2.035156 -1.484375 1.820312 -1.300781 1.625 -1.21875 C 1.425781 -1.144531 1.257812 -1.117188 1.125 -1.140625 C 0.988281 -1.160156 0.882812 -1.191406 0.8125 -1.234375 C 0.5625 -1.390625 0.390625 -1.660156 0.296875 -2.046875 C 0.203125 -2.429688 0.1875 -2.882812 0.25 -3.40625 C 0.320312 -3.9375 0.472656 -4.492188 0.703125 -5.078125 C 0.742188 -5.148438 0.804688 -5.203125 0.890625 -5.234375 C 0.972656 -5.273438 1.054688 -5.28125 1.140625 -5.25 C 1.222656 -5.207031 1.28125 -5.144531 1.3125 -5.0625 C 1.351562 -4.988281 1.359375 -4.90625 1.328125 -4.8125 C 1.097656 -4.269531 0.957031 -3.78125 0.90625 -3.34375 C 0.851562 -2.914062 0.851562 -2.566406 0.90625 -2.296875 C 0.96875 -2.023438 1.050781 -1.863281 1.15625 -1.8125 C 1.28125 -1.726562 1.476562 -1.847656 1.75 -2.171875 C 1.976562 -2.453125 2.207031 -2.757812 2.4375 -3.09375 C 2.664062 -3.425781 2.875 -3.742188 3.0625 -4.046875 C 3.25 -4.347656 3.398438 -4.597656 3.515625 -4.796875 C 3.609375 -4.953125 3.742188 -5.003906 3.921875 -4.953125 C 4.085938 -4.878906 4.160156 -4.757812 4.140625 -4.59375 C 3.941406 -3.15625 3.738281 -1.789062 3.53125 -0.5 C 4.257812 -1.175781 4.992188 -1.789062 5.734375 -2.34375 C 6.484375 -2.894531 7.234375 -3.414062 7.984375 -3.90625 C 8.054688 -3.945312 8.132812 -3.957031 8.21875 -3.9375 C 8.3125 -3.925781 8.382812 -3.878906 8.4375 -3.796875 Z M 0.484375 10.296875 C 1.222656 7.992188 1.90625 5.054688 2.53125 1.484375 C 1.957031 2.128906 1.398438 2.832031 0.859375 3.59375 C 0.316406 4.363281 -0.191406 5.210938 -0.671875 6.140625 C -1.191406 7.140625 -1.585938 8.101562 -1.859375 9.03125 C -2.140625 9.96875 -2.316406 10.820312 -2.390625 11.59375 C -2.460938 12.363281 -2.46875 13.007812 -2.40625 13.53125 C -2.34375 14.050781 -2.238281 14.40625 -2.09375 14.59375 C -2.03125 14.664062 -1.976562 14.703125 -1.9375 14.703125 C -1.894531 14.710938 -1.863281 14.710938 -1.84375 14.703125 C -1.800781 14.691406 -1.710938 14.632812 -1.578125 14.53125 C -1.453125 14.4375 -1.285156 14.238281 -1.078125 13.9375 C -0.878906 13.644531 -0.644531 13.207031 -0.375 12.625 C -0.113281 12.050781 0.171875 11.273438 0.484375 10.296875 Z M 0.484375 10.296875 "/></g></g></g><g fill="#000000" fill-opacity="1"><g transform="translate(208.828601, 213.696576)"><g><path d="M 7.234375 -3.828125 C 7.304688 -3.796875 7.359375 -3.734375 7.390625 -3.640625 C 7.421875 -3.554688 7.421875 -3.472656 7.390625 -3.390625 C 7.171875 -2.941406 6.929688 -2.492188 6.671875 -2.046875 C 6.410156 -1.597656 6.140625 -1.1875 5.859375 -0.8125 C 5.578125 -0.445312 5.285156 -0.15625 4.984375 0.0625 C 4.679688 0.289062 4.382812 0.40625 4.09375 0.40625 C 4.03125 0.40625 3.96875 0.398438 3.90625 0.390625 C 3.132812 0.242188 2.65625 -0.785156 2.46875 -2.703125 C 2.269531 -2.441406 2.039062 -2.144531 1.78125 -1.8125 C 1.519531 -1.488281 1.25 -1.164062 0.96875 -0.84375 C 0.914062 -0.800781 0.835938 -0.726562 0.734375 -0.625 C 0.640625 -0.53125 0.519531 -0.453125 0.375 -0.390625 C 0.238281 -0.335938 0.101562 -0.34375 -0.03125 -0.40625 C -0.3125 -0.507812 -0.445312 -0.8125 -0.4375 -1.3125 C -0.4375 -1.601562 -0.378906 -1.957031 -0.265625 -2.375 C -0.160156 -2.800781 -0.0078125 -3.226562 0.1875 -3.65625 C 0.394531 -4.09375 0.632812 -4.476562 0.90625 -4.8125 C 1.175781 -5.144531 1.476562 -5.367188 1.8125 -5.484375 C 2.019531 -5.566406 2.269531 -5.582031 2.5625 -5.53125 C 2.863281 -5.476562 3.175781 -5.257812 3.5 -4.875 C 3.5625 -4.8125 3.585938 -4.734375 3.578125 -4.640625 C 3.578125 -4.546875 3.539062 -4.472656 3.46875 -4.421875 C 3.394531 -4.359375 3.3125 -4.328125 3.21875 -4.328125 C 3.132812 -4.335938 3.0625 -4.378906 3 -4.453125 C 2.726562 -4.773438 2.488281 -4.925781 2.28125 -4.90625 C 2.082031 -4.882812 1.914062 -4.820312 1.78125 -4.71875 C 1.519531 -4.539062 1.285156 -4.28125 1.078125 -3.9375 C 0.878906 -3.59375 0.707031 -3.226562 0.5625 -2.84375 C 0.425781 -2.46875 0.328125 -2.113281 0.265625 -1.78125 C 0.210938 -1.457031 0.195312 -1.21875 0.21875 -1.0625 C 0.257812 -1.09375 0.296875 -1.125 0.328125 -1.15625 C 0.367188 -1.1875 0.414062 -1.234375 0.46875 -1.296875 C 0.8125 -1.671875 1.125 -2.046875 1.40625 -2.421875 C 1.695312 -2.796875 1.945312 -3.128906 2.15625 -3.421875 C 2.21875 -3.492188 2.269531 -3.566406 2.3125 -3.640625 C 2.363281 -3.722656 2.414062 -3.789062 2.46875 -3.84375 C 2.5625 -3.957031 2.679688 -3.992188 2.828125 -3.953125 C 2.972656 -3.921875 3.054688 -3.820312 3.078125 -3.65625 C 3.109375 -2.90625 3.164062 -2.300781 3.25 -1.84375 C 3.332031 -1.394531 3.425781 -1.054688 3.53125 -0.828125 C 3.632812 -0.609375 3.734375 -0.457031 3.828125 -0.375 C 3.921875 -0.300781 3.988281 -0.265625 4.03125 -0.265625 C 4.25 -0.210938 4.597656 -0.429688 5.078125 -0.921875 C 5.566406 -1.421875 6.132812 -2.335938 6.78125 -3.671875 C 6.820312 -3.765625 6.882812 -3.828125 6.96875 -3.859375 C 7.0625 -3.890625 7.148438 -3.878906 7.234375 -3.828125 Z M 7.234375 -3.828125 "/></g></g></g><g fill="#000000" fill-opacity="1"><g transform="translate(215.244686, 213.696576)"><g><path d="M 7.921875 -3.828125 C 7.960938 -3.742188 7.972656 -3.65625 7.953125 -3.5625 C 7.941406 -3.476562 7.894531 -3.410156 7.8125 -3.359375 C 7.144531 -2.921875 6.382812 -2.410156 5.53125 -1.828125 C 4.6875 -1.253906 3.820312 -0.585938 2.9375 0.171875 C 2.539062 2.515625 2.117188 4.53125 1.671875 6.21875 C 1.222656 7.90625 0.757812 9.296875 0.28125 10.390625 C -0.195312 11.492188 -0.664062 12.332031 -1.125 12.90625 C -1.582031 13.476562 -2.019531 13.820312 -2.4375 13.9375 C -2.5625 13.96875 -2.679688 13.984375 -2.796875 13.984375 C -3.160156 13.984375 -3.476562 13.820312 -3.75 13.5 C -3.976562 13.207031 -4.132812 12.796875 -4.21875 12.265625 C -4.3125 11.742188 -4.332031 11.160156 -4.28125 10.515625 C -4.21875 10.015625 -4.082031 9.375 -3.875 8.59375 C -3.675781 7.820312 -3.3125 6.957031 -2.78125 6 C -2.070312 4.738281 -1.273438 3.59375 -0.390625 2.5625 C 0.492188 1.539062 1.394531 0.628906 2.3125 -0.171875 C 2.394531 -0.640625 2.472656 -1.132812 2.546875 -1.65625 C 2.617188 -2.175781 2.691406 -2.707031 2.765625 -3.25 C 2.597656 -3 2.425781 -2.75 2.25 -2.5 C 2.082031 -2.257812 1.914062 -2.023438 1.75 -1.796875 C 1.570312 -1.578125 1.375 -1.367188 1.15625 -1.171875 C 0.945312 -0.984375 0.726562 -0.925781 0.5 -1 C 0.394531 -1.019531 0.289062 -1.082031 0.1875 -1.1875 C 0.09375 -1.300781 0.0351562 -1.492188 0.015625 -1.765625 C -0.00390625 -2.046875 0.0234375 -2.410156 0.109375 -2.859375 C 0.191406 -3.316406 0.328125 -3.785156 0.515625 -4.265625 C 0.703125 -4.753906 0.929688 -5.195312 1.203125 -5.59375 C 1.484375 -5.988281 1.796875 -6.273438 2.140625 -6.453125 C 2.347656 -6.554688 2.597656 -6.609375 2.890625 -6.609375 C 3.179688 -6.617188 3.5 -6.46875 3.84375 -6.15625 C 3.914062 -6.09375 3.953125 -6.015625 3.953125 -5.921875 C 3.960938 -5.835938 3.929688 -5.757812 3.859375 -5.6875 C 3.804688 -5.625 3.734375 -5.585938 3.640625 -5.578125 C 3.546875 -5.578125 3.460938 -5.601562 3.390625 -5.65625 C 2.984375 -6.039062 2.566406 -6.039062 2.140625 -5.65625 C 1.878906 -5.414062 1.644531 -5.097656 1.4375 -4.703125 C 1.238281 -4.316406 1.078125 -3.914062 0.953125 -3.5 C 0.828125 -3.082031 0.742188 -2.703125 0.703125 -2.359375 C 0.660156 -2.023438 0.660156 -1.796875 0.703125 -1.671875 C 0.742188 -1.691406 0.804688 -1.738281 0.890625 -1.8125 C 0.972656 -1.894531 1.078125 -2.019531 1.203125 -2.1875 C 1.429688 -2.488281 1.664062 -2.8125 1.90625 -3.15625 C 2.144531 -3.5 2.359375 -3.820312 2.546875 -4.125 C 2.742188 -4.425781 2.890625 -4.660156 2.984375 -4.828125 C 3.078125 -4.972656 3.207031 -5.019531 3.375 -4.96875 C 3.550781 -4.925781 3.628906 -4.8125 3.609375 -4.625 C 3.523438 -3.945312 3.4375 -3.289062 3.34375 -2.65625 C 3.257812 -2.019531 3.175781 -1.410156 3.09375 -0.828125 C 3.894531 -1.484375 4.671875 -2.0625 5.421875 -2.5625 C 6.179688 -3.070312 6.859375 -3.523438 7.453125 -3.921875 C 7.535156 -3.972656 7.617188 -3.988281 7.703125 -3.96875 C 7.785156 -3.945312 7.859375 -3.898438 7.921875 -3.828125 Z M -2.625 13.296875 C -2.34375 13.210938 -2.007812 12.941406 -1.625 12.484375 C -1.25 12.023438 -0.847656 11.316406 -0.421875 10.359375 C 0.00390625 9.410156 0.4375 8.160156 0.875 6.609375 C 1.320312 5.054688 1.742188 3.148438 2.140625 0.890625 C 1.347656 1.617188 0.578125 2.429688 -0.171875 3.328125 C -0.921875 4.234375 -1.59375 5.234375 -2.1875 6.328125 C -2.789062 7.410156 -3.195312 8.414062 -3.40625 9.34375 C -3.613281 10.269531 -3.6875 11.054688 -3.625 11.703125 C -3.5625 12.347656 -3.425781 12.8125 -3.21875 13.09375 C -3.050781 13.300781 -2.851562 13.367188 -2.625 13.296875 Z M -2.625 13.296875 "/></g></g></g><g fill="#000000" fill-opacity="1"><g transform="translate(222.350677, 213.696576)"><g><path d="M 5.828125 -3.84375 C 5.910156 -3.800781 5.957031 -3.734375 5.96875 -3.640625 C 5.976562 -3.546875 5.960938 -3.460938 5.921875 -3.390625 C 5.242188 -2.453125 4.617188 -1.675781 4.046875 -1.0625 C 3.484375 -0.445312 2.921875 0.0625 2.359375 0.46875 C 1.929688 0.769531 1.515625 0.921875 1.109375 0.921875 C 0.785156 0.921875 0.503906 0.832031 0.265625 0.65625 C 0.0976562 0.539062 -0.0625 0.335938 -0.21875 0.046875 C -0.375 -0.242188 -0.457031 -0.664062 -0.46875 -1.21875 C -0.476562 -1.78125 -0.335938 -2.519531 -0.046875 -3.4375 C -0.046875 -3.4375 -0.046875 -3.441406 -0.046875 -3.453125 C 0.296875 -4.554688 0.695312 -5.394531 1.15625 -5.96875 C 1.625 -6.550781 2.023438 -6.847656 2.359375 -6.859375 C 2.628906 -6.867188 2.800781 -6.753906 2.875 -6.515625 C 3.007812 -6.179688 2.863281 -5.707031 2.4375 -5.09375 C 2.007812 -4.476562 1.378906 -3.828125 0.546875 -3.140625 C 0.296875 -2.335938 0.175781 -1.707031 0.1875 -1.25 C 0.195312 -0.789062 0.257812 -0.460938 0.375 -0.265625 C 0.488281 -0.0664062 0.582031 0.0625 0.65625 0.125 C 1 0.375 1.441406 0.300781 1.984375 -0.09375 C 2.515625 -0.457031 3.050781 -0.9375 3.59375 -1.53125 C 4.132812 -2.125 4.722656 -2.875 5.359375 -3.78125 C 5.421875 -3.84375 5.5 -3.882812 5.59375 -3.90625 C 5.6875 -3.925781 5.765625 -3.90625 5.828125 -3.84375 Z M 2.25 -6.140625 C 2.113281 -6.054688 1.9375 -5.882812 1.71875 -5.625 C 1.5 -5.375 1.273438 -5 1.046875 -4.5 C 1.460938 -4.90625 1.753906 -5.25 1.921875 -5.53125 C 2.097656 -5.8125 2.207031 -6.015625 2.25 -6.140625 Z M 2.25 -6.140625 "/></g></g></g><g fill="#000000" fill-opacity="1"><g transform="translate(227.369714, 213.696576)"><g><path d="M 7.578125 -3.921875 C 7.648438 -3.867188 7.703125 -3.800781 7.734375 -3.71875 C 7.773438 -3.632812 7.773438 -3.550781 7.734375 -3.46875 C 7.515625 -3 7.242188 -2.46875 6.921875 -1.875 C 6.609375 -1.289062 6.269531 -0.703125 5.90625 -0.109375 C 5.550781 0.484375 5.191406 1.023438 4.828125 1.515625 C 4.460938 2.003906 4.109375 2.398438 3.765625 2.703125 C 3.421875 3.003906 3.109375 3.15625 2.828125 3.15625 C 2.742188 3.15625 2.671875 3.140625 2.609375 3.109375 C 2.367188 3.015625 2.207031 2.796875 2.125 2.453125 C 2.050781 2.109375 2.0625 1.613281 2.15625 0.96875 C 2.3125 -0.195312 2.738281 -1.84375 3.4375 -3.96875 C 3.425781 -3.96875 3.414062 -3.960938 3.40625 -3.953125 C 3.394531 -3.953125 3.382812 -3.953125 3.375 -3.953125 C 3.144531 -3.785156 2.867188 -3.613281 2.546875 -3.4375 C 2.222656 -3.269531 1.890625 -3.15625 1.546875 -3.09375 C 1.203125 -3.039062 0.875 -3.117188 0.5625 -3.328125 C 0.125 -3.640625 -0.0976562 -4.070312 -0.109375 -4.625 C -0.117188 -5.175781 0.0859375 -5.78125 0.515625 -6.4375 C 0.648438 -6.644531 0.828125 -6.875 1.046875 -7.125 C 1.273438 -7.375 1.515625 -7.566406 1.765625 -7.703125 C 2.015625 -7.847656 2.238281 -7.859375 2.4375 -7.734375 C 2.539062 -7.671875 2.617188 -7.570312 2.671875 -7.4375 C 2.722656 -7.300781 2.71875 -7.085938 2.65625 -6.796875 C 2.59375 -6.503906 2.453125 -6.117188 2.234375 -5.640625 C 2.023438 -5.160156 1.703125 -4.535156 1.265625 -3.765625 C 1.523438 -3.722656 1.816406 -3.796875 2.140625 -3.984375 C 2.472656 -4.171875 2.765625 -4.34375 3.015625 -4.5 C 3.253906 -4.664062 3.453125 -4.785156 3.609375 -4.859375 C 3.773438 -4.929688 3.929688 -4.914062 4.078125 -4.8125 C 4.203125 -4.707031 4.25 -4.578125 4.21875 -4.421875 C 4.195312 -4.273438 4.175781 -4.164062 4.15625 -4.09375 C 3.78125 -2.894531 3.488281 -1.894531 3.28125 -1.09375 C 3.070312 -0.300781 2.929688 0.332031 2.859375 0.8125 C 2.785156 1.289062 2.75 1.648438 2.75 1.890625 C 2.75 2.140625 2.765625 2.300781 2.796875 2.375 C 2.828125 2.445312 2.84375 2.488281 2.84375 2.5 C 2.976562 2.519531 3.257812 2.296875 3.6875 1.828125 C 4.125 1.367188 4.640625 0.671875 5.234375 -0.265625 C 5.835938 -1.203125 6.46875 -2.363281 7.125 -3.75 C 7.164062 -3.832031 7.226562 -3.890625 7.3125 -3.921875 C 7.40625 -3.953125 7.492188 -3.953125 7.578125 -3.921875 Z M 0.625 -5.09375 C 0.550781 -4.84375 0.53125 -4.640625 0.5625 -4.484375 C 0.59375 -4.335938 0.632812 -4.21875 0.6875 -4.125 C 1.050781 -4.769531 1.328125 -5.289062 1.515625 -5.6875 C 1.710938 -6.09375 1.84375 -6.40625 1.90625 -6.625 C 1.976562 -6.84375 2.019531 -7 2.03125 -7.09375 C 1.90625 -7.019531 1.75 -6.882812 1.5625 -6.6875 C 1.375 -6.5 1.1875 -6.265625 1 -5.984375 C 0.820312 -5.710938 0.695312 -5.414062 0.625 -5.09375 Z M 0.625 -5.09375 "/></g></g></g></svg>